<svg width="36" height="37" viewBox="0 0 36 37" fill="none" xmlns="http://www.w3.org/2000/svg">
<path d="M21.3779 37H14.6246C13.7528 37 12.9985 36.3951 12.812 35.5459L12.0569 32.0605C11.0495 31.6204 10.0943 31.0701 9.20895 30.4196L5.80074 31.5018C4.96956 31.7661 4.066 31.4173 3.63002 30.6638L0.245931 24.8344C-0.185266 24.0806 -0.0367097 23.1296 0.604007 22.5423L3.24783 20.1373C3.1276 19.0478 3.1276 17.9485 3.24783 16.8591L0.604007 14.4596C-0.0376535 13.872 -0.186269 12.9199 0.245931 12.1656L3.6226 6.33255C4.05857 5.57904 4.96214 5.2302 5.79332 5.4945L9.20153 6.57675C9.65434 6.24219 10.1257 5.93336 10.6134 5.65175C11.0816 5.38848 11.5634 5.15012 12.0569 4.93765L12.8138 1.45595C12.9995 0.606742 13.753 0.000914627 14.6246 0H21.3779C22.2496 0.000914627 23.0031 0.606742 23.1887 1.45595L23.9531 4.9395C24.4741 5.168 24.9814 5.4262 25.4726 5.7128C25.9308 5.977 26.3736 6.26668 26.7992 6.58045L30.2092 5.4982C31.0399 5.23489 31.9423 5.58359 32.3781 6.33625L35.7548 12.1693C36.186 12.9231 36.0374 13.8741 35.3967 14.4614L32.7529 16.8664C32.8731 17.9559 32.8731 19.0552 32.7529 20.1446L35.3967 22.5497C36.0374 23.137 36.186 24.088 35.7548 24.8418L32.3781 30.6748C31.9423 31.4275 31.0399 31.7762 30.2092 31.5129L26.7992 30.4306C26.3677 30.7475 25.9193 31.0409 25.4559 31.3094C24.9695 31.5904 24.4678 31.8443 23.9531 32.0698L23.1887 35.5459C23.0023 36.3944 22.249 36.9993 21.3779 37ZM9.875 26.3237L11.3964 27.4337C11.7393 27.6855 12.0968 27.9172 12.4669 28.1274C12.8151 28.3285 13.1737 28.5113 13.5411 28.675L15.2721 29.4317L16.12 33.3H19.8863L20.7341 29.4298L22.4652 28.6732C23.2208 28.3409 23.9381 27.9277 24.6043 27.4411L26.1275 26.3311L29.9142 27.5336L31.7974 24.2812L28.8604 21.6117L29.0682 19.7395C29.1595 18.9206 29.1595 18.0942 29.0682 17.2753L28.8604 15.4031L31.7992 12.728L29.9142 9.47385L26.1275 10.6763L24.6043 9.56635C23.9379 9.07741 23.2207 8.66125 22.4652 8.325L20.7341 7.56835L19.8863 3.7H16.12L15.2684 7.5702L13.5411 8.325C13.1734 8.48603 12.8148 8.66698 12.4669 8.86705C12.099 9.07671 11.7435 9.3071 11.4019 9.5571L9.87872 10.6671L6.09388 9.4646L4.20702 12.728L7.14398 15.3939L6.93619 17.2679C6.84491 18.0868 6.84491 18.9132 6.93619 19.7321L7.14398 21.6043L4.20702 24.2739L6.09017 27.5261L9.875 26.3237ZM17.9939 25.9C13.8952 25.9 10.5726 22.5869 10.5726 18.5C10.5726 14.4131 13.8952 11.1 17.9939 11.1C22.0925 11.1 25.4151 14.4131 25.4151 18.5C25.41 22.5848 22.0904 25.8949 17.9939 25.9ZM17.9939 14.8C15.9667 14.802 14.3164 16.4259 14.2874 18.447C14.2583 20.4681 15.8613 22.1384 17.8875 22.1984C19.9138 22.2583 21.6133 20.6858 21.7045 18.6665V19.4065V18.5C21.7045 16.4565 20.0432 14.8 17.9939 14.8Z" fill="white"/>
</svg>
